<svg xmlns="http://www.w3.org/2000/svg" viewBox="0 0 211.31 285.86"><defs><style>.cls-1{fill:#fff;}</style></defs><title>papel</title><g id="Capa_2" data-name="Capa 2"><g id="Capa_1-2" data-name="Capa 1"><path class="cls-1" d="M124.47,11.88l12.18.59V24.53h37.43v25h24.78v12.3H174.17v87.19H161.94V37.37H136.8v99.17H124.65c-.07-.87-.2-1.7-.2-2.54q0-59.94,0-119.88c0-.78.09-1.56.13-2.33Z"/><path class="cls-1" d="M36.7,137.26l12.85-.74V28.65c0-3.93,0-3.94,4-3.95H61.9V186.49H49.67v-37.2H37.36c-.21-4.19-.42-8.12-.62-12.06Z"/><path class="cls-1" d="M186.33,248.8c.11,1.45.31,2.89.31,4.34,0,10.83,0,21.67,0,32.72H62.29V248.92l-.08.08H74.45v24.56H174.2V248.87h12.22Z"/><path class="cls-1" d="M199.41,62.09h11.9V211.23h-11.9Z"/><path class="cls-1" d="M99.74,12c-.1,1.25-.29,2.51-.29,3.77q0,58.46,0,116.91c0,4.09,0,4.13-4.15,4.07-2.6,0-6.16.75-7.55-.61s-.67-4.93-.67-7.53q0-49.95,0-99.91V24.58H62.34V12.23H96.91c1,0,1.94-.12,2.91-.19Z"/><path class="cls-1" d="M12.64,161.26H0V124.69H36.71v12.56l0,0c-.24-.15-.47-.43-.71-.43-7.79,0-15.58,0-23.83,0,0,2.15,0,4.16,0,6.17.11,6.11.25,12.23.38,18.35Z"/><path class="cls-1" d="M186.42,248.87c.11-1.83.29-3.67.3-5.5,0-9.57,0-19.13,0-28.69,0-1,.08-1.91.13-3h12v37.17H186.34Z"/><path class="cls-1" d="M62.29,248.92H49.78V224.14H62.21V249Z"/><path class="cls-1" d="M24.83,173.69l12.21.69c0,3.18,0,6.35,0,9.52-.07,5.14-.2,10.27-.31,15.41l.08-.06H24.91V173.61Z"/><path class="cls-1" d="M36.72,199.31H49.21v24.43H37.12c0-2.71,0-5.31,0-7.91-.08-5.53-.2-11.06-.3-16.59Z"/><path class="cls-1" d="M99.82,12V0h24.64c0,4,0,7.94,0,11.89l.1-.1c-3.69.12-7.38.33-11.07.34-4.58,0-9.17-.11-13.76-.17Z"/><path class="cls-1" d="M24.91,173.61l-12.28.59V161.26l0,0,12.23.6c0,3.89,0,7.84,0,11.79Z"/></g></g></svg>