<svg xmlns="http://www.w3.org/2000/svg" viewBox="0 0 211.69 210.94"><defs><style>.cls-1{fill:#fff;}</style></defs><title>piedra</title><g id="Capa_2" data-name="Capa 2"><g id="Capa_1-2" data-name="Capa 1"><path class="cls-1" d="M187,174.14v36.8H62.83c-.16-1.78-.4-3.31-.4-4.83q-.06-14.79,0-29.57a13.94,13.94,0,0,1,.56-2.76l-.08.05H74.39v25h100V174.24H187.1Z"/><path class="cls-1" d="M37.17,62.33l12.44-.66V24.74l12-.53h0a10.48,10.48,0,0,1,.6,2.44q.08,41.61.07,83.23c0,.48-.09,1-.16,1.66H50v-37H37.21c0-4.3,0-8.26,0-12.22C37.22,62.25,37.17,62.33,37.17,62.33Z"/><path class="cls-1" d="M199.18,136.41c.07-4.67.19-9.34.19-14q0-35,0-70c0-.85.1-1.71.16-2.7h12.14v83c0,3.84,0,3.87-3.83,3.84-2.93,0-5.85-.13-8.77-.19Z"/><path class="cls-1" d="M61.66,24.21a16.56,16.56,0,0,0,.72-3.12c.1-2.81,0-5.63,0-8.87H99.55l-.09-.08V61.57H87.35V24.2H61.66Z"/><path class="cls-1" d="M161.37,24.77H137.1V61.6H124.8V12.21l-.08.09h37.44l-.79,12.48Z"/><path class="cls-1" d="M161.37,24.78H187.1V36.62l.06-.09-12.68.62v37H162v-5q0-20.79,0-41.57a14.11,14.11,0,0,0-.63-2.89Z"/><path class="cls-1" d="M12.1,86.69H.26C.16,85.7,0,85,0,84.2,0,73.56,0,62.91,0,52.27c0-1.61,0-2.81,2.23-2.8,11.23.08,22.46,0,33.69.06a7.44,7.44,0,0,1,1.26.22c0,4.23,0,8.4,0,12.57,0,0,0-.07,0,0-1.63-.14-3.24-.41-4.86-.42-6.52-.05-13,0-20,0,0,2,0,3.68,0,5.39Q12.18,77,12,86.76Z"/><path class="cls-1" d="M187.1,174.24V136.42h12.08l-.09-.11c.07,7,.16,14,.21,21.06,0,5.36,0,10.73,0,16.77H187Z"/><path class="cls-1" d="M49.88,148.63c2.57.16,5.14.36,7.72.48,1.44.07,2.89,0,4.61,0,0,7.28,0,14.27,0,21.25a18.3,18.3,0,0,0,.66,3.47s.08-.06.1-.06H50V148.55Z"/><path class="cls-1" d="M37.48,124.09H25.33V98.75l-.07.06,12.13.58v24.79Z"/><path class="cls-1" d="M99.55,12.22V0h25.17V12.3l.08-.09-25.33-.07Z"/><path class="cls-1" d="M50,148.55l-12.49.68c0-8.67,0-16.91,0-25.14l-.09.09H49.87v24.45Z"/><path class="cls-1" d="M25.33,98.75H12.1V86.69l-.09.07H25.25v12Z"/><path class="cls-1" d="M187.1,36.62l12.19.62c0,3.56.07,7-.07,10.52a2.25,2.25,0,0,1-1.54,1.54c-3.48.14-7,.07-10.53.07,0-4.48,0-8.65,0-12.83Z"/></g></g></svg>