<svg xmlns="http://www.w3.org/2000/svg" viewBox="0 0 211.79 286.1"><defs><style>.cls-1{fill:#fff;}</style></defs><title>tijera</title><g id="Capa_2" data-name="Capa 2"><g id="Capa_1-2" data-name="Capa 1"><path class="cls-1" d="M186.82,249.07v37H62.65a13.8,13.8,0,0,1-.33-2.19q0-16.56,0-33.13a11.54,11.54,0,0,1,.26-1.72l-.09.07H74.83V273.9h99.74V249.14h12.34Z"/><path class="cls-1" d="M74.82,62H87.07V12.19H99.48l-.06-.09c.07,1.36.2,2.72.21,4.08q0,20.66,0,41.32v79.19H87.16V99.45H74.9V62Z"/><path class="cls-1" d="M124.68,12.19h12.23V87h25.28V99.58l.09-.08h-25.4v37.21H124.59V133.4q0-59.19,0-118.39c0-1,.1-1.94.15-2.92Z"/><path class="cls-1" d="M37.26,137.15H49.67V111.8l-.09.09H62v74.75H49.7V149.3H37.35V137Z"/><path class="cls-1" d="M199.1,124.85c3.6-.1,7.2-.29,10.79-.2.62,0,1.4,1.13,1.75,1.9a6.11,6.11,0,0,1,.07,2.31v82.63H199.1l.11.11c.06-1,.16-1.94.16-2.91q0-40.53,0-81c0-1-.1-1.94-.15-2.91Z"/><path class="cls-1" d="M12.09,161.65H.28A18.13,18.13,0,0,1,0,159.54c0-10.74,0-21.49,0-32.23,0-1.62,0-2.81,2.23-2.79,11.12.08,22.25,0,33.38,0a12,12,0,0,1,1.65.26v12.32l.09-.11h-25c0,3.41,0,6.62,0,9.82-.07,5-.2,9.92-.31,14.88Z"/><path class="cls-1" d="M162.19,99.58h24.63v12.29l.09-.07h-12.5v37.36H162.12c0-3.24,0-6.26,0-9.28q.07-20.19.16-40.38Z"/><path class="cls-1" d="M37.34,74.87H25.17V25.12H37.34L37.27,25q0,25,0,49.93Z"/><path class="cls-1" d="M199.1,211.49v37.58H186.82l.09.07V211.6h12.3Z"/><path class="cls-1" d="M62.52,25.1h12.3V62L74.9,62H62.31c0-4.55,0-8.9,0-13.26.06-7.88.16-15.77.25-23.65Z"/><path class="cls-1" d="M49.67,111.8H37.34V74.87l-.08.09H49.58v36.93Z"/><path class="cls-1" d="M62.59,249.06H49.67V223.8l-.08.1H62.26c0,2.29,0,3.83,0,5.38l.24,19.85Z"/><path class="cls-1" d="M37.34,25.12V12.63c1-.09,1.84-.24,2.67-.24,6.51,0,13,.1,19.53,0,2.25,0,2.82.75,2.76,2.86-.09,3.29.13,6.59.22,9.88l0-.06H37.27Z"/><path class="cls-1" d="M99.48,12.19c.08-3.29.07-6.59.3-9.88.06-.8.89-2.2,1.39-2.21C108.82,0,116.47,0,124.68,0V12.19l.07-.1H99.42Z"/><path class="cls-1" d="M37.35,199.19H25.07V173.94l-.11.12H37.27v25.23Z"/><path class="cls-1" d="M49.67,223.8H37.35V199.19l-.08.1H49.59V223.9Z"/><path class="cls-1" d="M186.82,111.87H199.1v13l.12-.12H186.91V111.8Z"/><path class="cls-1" d="M25.07,173.94H12.71q-.32-6.16-.62-12.29l-.05.09H25v12.32Z"/></g></g></svg>